HIERARCHY
ROOT Hips
{
    OFFSET   0.000000   0.000000   0.000000
    CHANNELS 6 Xposition Yposition Zposition Zrotation Xrotation Yrotation
    JOINT Chest
    {
        OFFSET   0.000000   8.007230   0.000000
        CHANNELS 3 Zrotation Xrotation Yrotation
        JOINT Chest2
        {
            OFFSET   0.000000  22.077100   0.000000
            CHANNELS 3 Zrotation Xrotation Yrotation
            JOINT Neck
            {
                OFFSET   0.000000  23.255100   0.000000
                CHANNELS 3 Zrotation Xrotation Yrotation
                JOINT Head
                {
                    OFFSET   0.000000  14.370100   1.956600
                    CHANNELS 3 Zrotation Xrotation Yrotation
                    End Site
                    {
                        OFFSET   0.000000  19.566000   0.000000
                    }
                }
            }
            JOINT LeftCollar
            {
                OFFSET   3.911900  19.017000  -0.467063
                CHANNELS 3 Zrotation Xrotation Yrotation
                JOINT LeftShoulder
                {
                    OFFSET  10.383700   0.000000   0.000000
                    CHANNELS 3 Zrotation Xrotation Yrotation
                    JOINT LeftElbow
                    {
                        OFFSET  26.662100   0.001193   0.000980
                        CHANNELS 3 Zrotation Xrotation Yrotation
                        JOINT LeftWrist
                        {
                            OFFSET  28.869000  -0.000059  -0.000082
                            CHANNELS 3 Zrotation Xrotation Yrotation
                            JOINT LeftFinger0
                            {
                                OFFSET   2.044650  -2.323450   3.252850
                                CHANNELS 3 Zrotation Xrotation Yrotation
                                JOINT LeftFinger01
                                {
                                    OFFSET   3.088130   0.000000   0.000000
                                    CHANNELS 3 Zrotation Xrotation Yrotation
                                    JOINT LeftFinger02
                                    {
                                        OFFSET   2.639460   0.000000   0.000000
                                        CHANNELS 3 Zrotation Xrotation Yrotation
                                        End Site
                                        {
                                            OFFSET   2.582190   0.000000   0.000000
                                        }
                                    }
                                }
                            }
                            JOINT LeftFinger1
                            {
                                OFFSET   8.364480   0.000000   3.252850
                                CHANNELS 3 Zrotation Xrotation Yrotation
                                JOINT LeftFinger11
                                {
                                    OFFSET   4.646930   0.000000   0.000000
                                    CHANNELS 3 Zrotation Xrotation Yrotation
                                    JOINT LeftFinger12
                                    {
                                        OFFSET   2.323470   0.000000   0.000000
                                        CHANNELS 3 Zrotation Xrotation Yrotation
                                        End Site
                                        {
                                            OFFSET   2.273050   0.000000   0.000000
                                        }
                                    }
                                }
                            }
                            JOINT LeftFinger2
                            {
                                OFFSET   8.364490   0.000016   1.078090
                                CHANNELS 3 Zrotation Xrotation Yrotation
                                JOINT LeftFinger21
                                {
                                    OFFSET   5.111610   0.000000   0.000000
                                    CHANNELS 3 Zrotation Xrotation Yrotation
                                    JOINT LeftFinger22
                                    {
                                        OFFSET   2.788150   0.000016   0.000000
                                        CHANNELS 3 Zrotation Xrotation Yrotation
                                        End Site
                                        {
                                            OFFSET   2.727660   0.000000   0.000000
                                        }
                                    }
                                }
                            }
                            JOINT LeftFinger3
                            {
                                OFFSET   7.899780   0.000015  -1.078090
                                CHANNELS 3 Zrotation Xrotation Yrotation
                                JOINT LeftFinger31
                                {
                                    OFFSET   4.646930   0.000000   0.000000
                                    CHANNELS 3 Zrotation Xrotation Yrotation
                                    JOINT LeftFinger32
                                    {
                                        OFFSET   2.323470   0.000000   0.000000
                                        CHANNELS 3 Zrotation Xrotation Yrotation
                                        End Site
                                        {
                                            OFFSET   2.273050   0.000000   0.000000
                                        }
                                    }
                                }
                            }
                            JOINT LeftFinger4
                            {
                                OFFSET   7.435090   0.000000  -3.252850
                                CHANNELS 3 Zrotation Xrotation Yrotation
                                JOINT LeftFinger41
                                {
                                    OFFSET   3.717550   0.000000   0.000000
                                    CHANNELS 3 Zrotation Xrotation Yrotation
                                    JOINT LeftFinger42
                                    {
                                        OFFSET   1.858770   0.000000   0.000000
                                        CHANNELS 3 Zrotation Xrotation Yrotation
                                        End Site
                                        {
                                            OFFSET   1.818440   0.000000   0.000000
                                        }
                                    }
                                }
                            }
                        }
                    }
                }
            }
            JOINT RightCollar
            {
                OFFSET  -3.911910  19.017000  -0.467062
                CHANNELS 3 Zrotation Xrotation Yrotation
                JOINT RightShoulder
                {
                    OFFSET -10.383700   0.000014   0.000000
                    CHANNELS 3 Zrotation Xrotation Yrotation
                    JOINT RightElbow
                    {
                        OFFSET -26.662100   0.001225   0.001091
                        CHANNELS 3 Zrotation Xrotation Yrotation
                        JOINT RightWrist
                        {
                            OFFSET -28.869000  -0.000020  -0.000085
                            CHANNELS 3 Zrotation Xrotation Yrotation
                            JOINT RightFinger0
                            {
                                OFFSET  -2.044650  -2.323490   3.252850
                                CHANNELS 3 Zrotation Xrotation Yrotation
                                JOINT RightFinger01
                                {
                                    OFFSET  -3.088130   0.000000   0.000000
                                    CHANNELS 3 Zrotation Xrotation Yrotation
                                    JOINT RightFinger02
                                    {
                                        OFFSET  -2.639460   0.000000   0.000000
                                        CHANNELS 3 Zrotation Xrotation Yrotation
                                        End Site
                                        {
                                            OFFSET  -2.582190   0.000000   0.000000
                                        }
                                    }
                                }
                            }
                            JOINT RightFinger1
                            {
                                OFFSET  -8.364480   0.000000   3.252850
                                CHANNELS 3 Zrotation Xrotation Yrotation
                                JOINT RightFinger11
                                {
                                    OFFSET  -4.646930   0.000000   0.000000
                                    CHANNELS 3 Zrotation Xrotation Yrotation
                                    JOINT RightFinger12
                                    {
                                        OFFSET  -2.323470   0.000000   0.000000
                                        CHANNELS 3 Zrotation Xrotation Yrotation
                                        End Site
                                        {
                                            OFFSET  -2.273050   0.000000   0.000000
                                        }
                                    }
                                }
                            }
                            JOINT RightFinger2
                            {
                                OFFSET  -8.364480   0.000000   1.078090
                                CHANNELS 3 Zrotation Xrotation Yrotation
                                JOINT RightFinger21
                                {
                                    OFFSET  -5.111620   0.000000   0.000000
                                    CHANNELS 3 Zrotation Xrotation Yrotation
                                    JOINT RightFinger22
                                    {
                                        OFFSET  -2.788160   0.000000   0.000000
                                        CHANNELS 3 Zrotation Xrotation Yrotation
                                        End Site
                                        {
                                            OFFSET  -2.727660   0.000000   0.000000
                                        }
                                    }
                                }
                            }
                            JOINT RightFinger3
                            {
                                OFFSET  -7.899780   0.000000  -1.078090
                                CHANNELS 3 Zrotation Xrotation Yrotation
                                JOINT RightFinger31
                                {
                                    OFFSET  -4.646930   0.000000   0.000000
                                    CHANNELS 3 Zrotation Xrotation Yrotation
                                    JOINT RightFinger32
                                    {
                                        OFFSET  -2.323470   0.000000   0.000000
                                        CHANNELS 3 Zrotation Xrotation Yrotation
                                        End Site
                                        {
                                            OFFSET  -2.273050   0.000000   0.000000
                                        }
                                    }
                                }
                            }
                            JOINT RightFinger4
                            {
                                OFFSET  -7.435090   0.000000  -3.252850
                                CHANNELS 3 Zrotation Xrotation Yrotation
                                JOINT RightFinger41
                                {
                                    OFFSET  -3.717550   0.000000   0.000000
                                    CHANNELS 3 Zrotation Xrotation Yrotation
                                    JOINT RightFinger42
                                    {
                                        OFFSET  -1.858760   0.000000   0.000000
                                        CHANNELS 3 Zrotation Xrotation Yrotation
                                        End Site
                                        {
                                            OFFSET  -1.818440   0.000000   0.000000
                                        }
                                    }
                                }
                            }
                        }
                    }
                }
            }
        }
    }
    JOINT LeftHip
    {
        OFFSET   9.783030   0.000000   0.000000
        CHANNELS 3 Zrotation Xrotation Yrotation
        JOINT LeftKnee
        {
            OFFSET   0.000063 -41.789100   0.000608
            CHANNELS 3 Zrotation Xrotation Yrotation
            JOINT LeftAnkle
            {
                OFFSET   0.000048 -41.133200  -0.000184
                CHANNELS 3 Zrotation Xrotation Yrotation
                JOINT LeftToe
                {
                    OFFSET   0.000000  -6.358960  14.674500
                    CHANNELS 3 Zrotation Xrotation Yrotation
                    End Site
                    {
                        OFFSET   0.000000   0.000000   3.913200
                    }
                }
            }
        }
    }
    JOINT RightHip
    {
        OFFSET  -9.783030   0.000000   0.000000
        CHANNELS 3 Zrotation Xrotation Yrotation
        JOINT RightKnee
        {
            OFFSET   0.000071 -41.789100   0.001239
            CHANNELS 3 Zrotation Xrotation Yrotation
            JOINT RightAnkle
            {
                OFFSET   0.000037 -41.133200  -0.000166
                CHANNELS 3 Zrotation Xrotation Yrotation
                JOINT RightToe
                {
                    OFFSET   0.000000  -6.358960  14.674500
                    CHANNELS 3 Zrotation Xrotation Yrotation
                    End Site
                    {
                        OFFSET   0.000000   0.000000   3.913200
                    }
                }
            }
        }
    }
}
MOTION
Frames: 4
Frame Time:   0.016667
  0.615232  89.535400  -0.693091  -2.084850  -6.342790  -0.623202   0.493755   3.337770  -0.348465   1.010440   6.672320  -0.727643   2.686980   0.900829  -0.043548   4.417440   1.814710   0.252793  -4.191940  -1.070230   2.180340 -73.362200  17.679900   2.197340  -2.172230  -7.415320 -15.002000  16.139700 -11.406800   8.458410  36.452700  28.392100 -52.391400 -34.264600  -0.005299  -0.003521 -12.130200   0.002415  -0.036596 -33.668400   6.905140 -10.209800 -28.052400   0.017065  -0.002335 -19.636700   0.011999   0.001392 -28.702600  -2.068880   3.776700 -40.976000   0.032544   0.007774 -27.290000   0.017742   0.013550 -28.724400  -2.070510   3.775800 -42.599400   0.016078   0.001440 -28.371200   0.009863   0.004312 -33.117400  -2.355030   3.605110 -49.787700   0.011369   0.006029 -33.158600   0.004484   0.004976   8.898790   1.020980   5.589400  69.804900  15.889300  -5.869590   0.307905  -4.535790   9.571310 -14.060100  -8.757610  -0.671213 -37.383000  24.717700  56.125100  28.406200   0.002805  -0.005654   9.203080   0.000000  -0.005205  29.077800   6.510420  11.524400  24.329100  -0.001396  -0.001579  17.030300   0.001730   0.004246  28.552800  -0.561653  -1.032210  36.792200   0.001413  -0.015150  24.503600  -0.003478  -0.006527  28.256700  -0.556397  -1.035050  33.903200  -0.006151   0.007534  22.588700   0.000743   0.004875  36.440200  -0.698067  -0.945314  54.668900   0.002327  -0.006122  36.409500  -0.003859  -0.012721   2.288800   9.146890   3.217520   0.844705   0.364687   5.488150  -1.583590  -3.916590   1.481460   0.000000   0.000000   0.000000   0.913868   8.631670  -1.735410  -0.033367   0.374107  -7.232110  -0.165690  -3.404340  -2.512730  -0.000000   0.000000   0.000000
  0.615269  89.535300  -0.693185  -2.087950  -6.348020  -0.616754   0.493650   3.339000  -0.346406   1.010120   6.674810  -0.723522   2.706940   0.914744  -0.043925   4.450280   1.842380   0.235330  -4.195690  -1.083670   2.180350 -73.372600  17.683800   2.208370  -2.168310  -7.415270 -15.004100  16.149100 -11.415200   8.458660  36.452400  28.393700 -52.399100 -34.264600  -0.005313  -0.003542 -12.130200   0.002417  -0.041448 -33.676800   6.905120 -10.209700 -28.059100   0.025961  -0.013079 -19.641400   0.020049  -0.004780 -28.702600  -2.069110   3.776980 -40.989300   0.055431  -0.006215 -27.298900   0.036135   0.009475 -28.724400  -2.070750   3.776080 -42.610400   0.027363  -0.007930 -28.378500   0.018347   0.000195 -33.122400  -2.355290   3.605390 -49.795100   0.026626   0.001032 -33.163500   0.015027   0.005219   8.900270   1.003870   5.600680  69.794800  15.934400  -5.862460   0.300723  -4.534910   9.560720 -14.062200  -8.750470  -0.671036 -37.379500  24.748700  56.175400  28.425300   0.002814  -0.005660   9.212640  -0.000000  -0.005208  29.090200   6.514880  11.526600  24.339500  -0.001393  -0.001578  17.037600   0.001728   0.004247  28.552900  -0.564300  -1.036980  36.818400   0.001403  -0.015161  24.521100  -0.003478  -0.006512  28.256500  -0.558995  -1.039840  33.910100  -0.006149   0.007528  22.588700   0.000743   0.004871  36.450400  -0.701475  -0.949586  54.684300   0.002326  -0.006107  36.419800  -0.003857  -0.012715   2.292400   9.159710   3.217750   0.845229   0.356609   5.488160  -1.583520  -3.915600   1.481480   0.000000   0.000000   0.000000   0.913623   8.633660  -1.735420  -0.021092   0.385139  -7.217450  -0.171950  -3.409430  -2.532150   0.000000   0.000000  -0.000000
  0.615306  89.535300  -0.693278  -2.094250  -6.359610  -0.607130   0.493511   3.343500  -0.342748   1.009670   6.683840  -0.716223   2.741530   0.937949  -0.044905   4.507230   1.888580   0.208400  -4.202090  -1.109350   2.180370 -73.390100  17.694700   2.226030  -2.161820  -7.415130 -15.008800  16.158900 -11.425300   8.458970  36.451500  28.396900 -52.415300 -34.264600  -0.005327  -0.003563 -12.130100   0.002419  -0.046300 -33.690500   6.905090 -10.209600 -28.070200   0.034857  -0.028805 -19.649200   0.028099  -0.014289 -28.702600  -2.069350   3.777250 -41.011800   0.078317  -0.026558 -27.313900   0.054529   0.001886 -28.724400  -2.070980   3.776350 -42.629700   0.039318  -0.022289 -28.391400   0.029221  -0.006715 -33.131300  -2.355550   3.605660 -49.808300   0.048318  -0.007634 -33.172300   0.030556   0.005461   8.903770   0.965025   5.618950  69.779600  16.017900  -5.850180   0.287844  -4.528030   9.538400 -14.064200  -8.734400  -0.670842 -37.376100  24.779700  56.225700  28.444400   0.002823  -0.005668   9.222190   0.000000  -0.005214  29.101500   6.522360  11.534000  24.349900  -0.001384  -0.001574  17.044900   0.001726   0.004251  28.552900  -0.566946  -1.041750  36.844600   0.001379  -0.015191  24.538500  -0.003476  -0.006472  28.256100  -0.561593  -1.044640  33.917000  -0.006142   0.007511  22.588700   0.000747   0.004861  36.460700  -0.704883  -0.953857  54.699800   0.002324  -0.006066  36.430100  -0.003851  -0.012702   2.300560   9.180050   3.218120   0.845753   0.348531   5.488230  -1.583450  -3.914610   1.481500   0.000000   0.000000   0.000000   0.913744   8.647600  -1.735480  -0.000820   0.396178  -7.195750  -0.183384  -3.414490  -2.561200  -0.000000   0.000000   0.000000
  0.615109  89.535200  -0.689975  -2.101480  -6.374390  -0.600864   0.493429   3.352930  -0.339282   1.009310   6.702750  -0.709342   2.772630   0.955399  -0.046492   4.558470   1.923420   0.190939  -4.207060  -1.138390   2.183270 -73.403600  17.710800   2.238060  -2.155530  -7.414830 -15.015200  16.158200 -11.427400   8.456090  36.449300  28.400300 -52.436500 -34.264600  -0.005324  -0.003544 -12.130000   0.002406  -0.037343 -33.702300   6.905050 -10.209900 -28.079700   0.033167  -0.037992 -19.656000   0.027668  -0.020589 -28.702600  -2.069290   3.776220 -41.032700   0.073436  -0.037982 -27.327800   0.053498  -0.008093 -28.724500  -2.070920   3.775320 -42.648600   0.040099  -0.032875 -28.404000   0.032010  -0.013771 -33.140700  -2.355490   3.604590 -49.822400   0.058798  -0.017316 -33.181500   0.039958   0.005401   8.908410   0.915359   5.633380  69.767400  16.108900  -5.836540   0.274834  -4.498490   9.511790 -14.057200  -8.705880  -0.671878 -37.372600  24.766900  56.215600  28.439700   0.002816  -0.005673   9.219000   0.000000  -0.005218  29.090900   6.528960  11.549700  24.342800  -0.001369  -0.001567  17.040000   0.001724   0.004257  28.552000  -0.557995  -1.025280  36.831100   0.001341  -0.015240  24.529500  -0.003474  -0.006413  28.256300  -0.552661  -1.028150  33.908500  -0.006129   0.007486  22.583000   0.000754   0.004845  36.453200  -0.693731  -0.938790  54.688400   0.002324  -0.006001  36.422500  -0.003842  -0.012680   2.312260   9.191510   3.218400   0.846646   0.364131   5.490710  -1.584770  -3.924870   1.477210  -0.000000   0.000000  -0.000000   0.917760   8.697620  -1.735670   0.012499   0.341648  -7.182390  -0.194952  -3.393320  -2.579510   0.000000   0.000000   0.000000
